<mxfile host="app.diagrams.net" modified="2023-11-02T13:11:14.511Z" agent="Mozilla/5.0 (Windows NT 10.0; Win64; x64) AppleWebKit/537.36 (KHTML, like Gecko) Chrome/118.0.0.0 Safari/537.36" etag="_v3CI9OY6iYg2htxHAeZ" version="22.0.8" type="device">
  <diagram name="第 1 页" id="Mm0hC2-zrbVgDmfwnK1h">
    <mxGraphModel dx="336" dy="533" grid="0" gridSize="10" guides="1" tooltips="1" connect="1" arrows="1" fold="1" page="1" pageScale="1" pageWidth="827" pageHeight="1169" math="0" shadow="0">
      <root>
        <mxCell id="0" />
        <mxCell id="1" parent="0" />
        <mxCell id="MWRULVRWjAI7JQODRnuG-19" value="ClassDiagram" style="swimlane;fontStyle=1;align=center;verticalAlign=top;childLayout=stackLayout;horizontal=1;startSize=26;horizontalStack=0;resizeParent=1;resizeParentMax=0;resizeLast=0;collapsible=1;marginBottom=0;whiteSpace=wrap;html=1;" vertex="1" parent="1">
          <mxGeometry x="178" y="158" width="160" height="34" as="geometry" />
        </mxCell>
        <mxCell id="MWRULVRWjAI7JQODRnuG-21" value="" style="line;strokeWidth=1;fillColor=none;align=left;verticalAlign=middle;spacingTop=-1;spacingLeft=3;spacingRight=3;rotatable=0;labelPosition=right;points=[];portConstraint=eastwest;strokeColor=inherit;" vertex="1" parent="MWRULVRWjAI7JQODRnuG-19">
          <mxGeometry y="26" width="160" height="8" as="geometry" />
        </mxCell>
        <mxCell id="MWRULVRWjAI7JQODRnuG-24" value="class" style="swimlane;fontStyle=1;align=center;verticalAlign=top;childLayout=stackLayout;horizontal=1;startSize=26;horizontalStack=0;resizeParent=1;resizeParentMax=0;resizeLast=0;collapsible=1;marginBottom=0;whiteSpace=wrap;html=1;" vertex="1" parent="1">
          <mxGeometry x="205" y="306" width="106" height="34" as="geometry" />
        </mxCell>
        <mxCell id="MWRULVRWjAI7JQODRnuG-25" value="" style="line;strokeWidth=1;fillColor=none;align=left;verticalAlign=middle;spacingTop=-1;spacingLeft=3;spacingRight=3;rotatable=0;labelPosition=right;points=[];portConstraint=eastwest;strokeColor=inherit;" vertex="1" parent="MWRULVRWjAI7JQODRnuG-24">
          <mxGeometry y="26" width="106" height="8" as="geometry" />
        </mxCell>
        <mxCell id="MWRULVRWjAI7JQODRnuG-26" value="" style="endArrow=none;html=1;rounded=0;entryX=0.5;entryY=1;entryDx=0;entryDy=0;exitX=0.5;exitY=0;exitDx=0;exitDy=0;" edge="1" parent="1" source="MWRULVRWjAI7JQODRnuG-24" target="MWRULVRWjAI7JQODRnuG-19">
          <mxGeometry relative="1" as="geometry">
            <mxPoint x="130" y="265" as="sourcePoint" />
            <mxPoint x="290" y="265" as="targetPoint" />
          </mxGeometry>
        </mxCell>
        <mxCell id="MWRULVRWjAI7JQODRnuG-27" value="名字&lt;br&gt;關係的名字是&quot;&quot;使用&quot;" style="html=1;whiteSpace=wrap;" vertex="1" parent="1">
          <mxGeometry x="49" y="189" width="120" height="34" as="geometry" />
        </mxCell>
        <mxCell id="MWRULVRWjAI7JQODRnuG-28" value="腳色&lt;br&gt;類的腳色是&quot;事物&quot;" style="html=1;whiteSpace=wrap;" vertex="1" parent="1">
          <mxGeometry x="49" y="280" width="120" height="34" as="geometry" />
        </mxCell>
        <mxCell id="MWRULVRWjAI7JQODRnuG-29" value="方向&lt;br&gt;雙向關聯(省略箭頭)" style="html=1;whiteSpace=wrap;" vertex="1" parent="1">
          <mxGeometry x="366" y="184" width="120" height="34" as="geometry" />
        </mxCell>
        <mxCell id="MWRULVRWjAI7JQODRnuG-30" value="多重性&lt;br&gt;(用數字和*表示)&lt;br&gt;1...* : 1個或多個&lt;br&gt;1個類圖有1個或多個類&lt;br&gt;1個類屬於1個或多個類圖" style="html=1;whiteSpace=wrap;" vertex="1" parent="1">
          <mxGeometry x="348" y="301" width="138" height="80" as="geometry" />
        </mxCell>
        <mxCell id="MWRULVRWjAI7JQODRnuG-31" value="1...*" style="text;align=center;fontStyle=1;verticalAlign=middle;spacingLeft=3;spacingRight=3;strokeColor=none;rotatable=0;points=[[0,0.5],[1,0.5]];portConstraint=eastwest;html=1;" vertex="1" parent="1">
          <mxGeometry x="255" y="275" width="80" height="26" as="geometry" />
        </mxCell>
        <mxCell id="MWRULVRWjAI7JQODRnuG-32" value="1...*" style="text;align=center;fontStyle=1;verticalAlign=middle;spacingLeft=3;spacingRight=3;strokeColor=none;rotatable=0;points=[[0,0.5],[1,0.5]];portConstraint=eastwest;html=1;" vertex="1" parent="1">
          <mxGeometry x="251" y="211" width="80" height="26" as="geometry" />
        </mxCell>
        <mxCell id="MWRULVRWjAI7JQODRnuG-33" value="+thing" style="text;align=center;fontStyle=1;verticalAlign=middle;spacingLeft=3;spacingRight=3;strokeColor=none;rotatable=0;points=[[0,0.5],[1,0.5]];portConstraint=eastwest;html=1;" vertex="1" parent="1">
          <mxGeometry x="171" y="259" width="80" height="26" as="geometry" />
        </mxCell>
        <mxCell id="MWRULVRWjAI7JQODRnuG-34" value="+diagram" style="text;align=center;fontStyle=1;verticalAlign=middle;spacingLeft=3;spacingRight=3;strokeColor=none;rotatable=0;points=[[0,0.5],[1,0.5]];portConstraint=eastwest;html=1;" vertex="1" parent="1">
          <mxGeometry x="175" y="207" width="80" height="26" as="geometry" />
        </mxCell>
        <mxCell id="MWRULVRWjAI7JQODRnuG-35" value="use" style="text;align=center;fontStyle=1;verticalAlign=middle;spacingLeft=3;spacingRight=3;strokeColor=none;rotatable=0;points=[[0,0.5],[1,0.5]];portConstraint=eastwest;html=1;" vertex="1" parent="1">
          <mxGeometry x="218" y="243" width="80" height="26" as="geometry" />
        </mxCell>
        <mxCell id="MWRULVRWjAI7JQODRnuG-36" value="" style="html=1;verticalAlign=bottom;endArrow=block;curved=0;rounded=0;entryX=0.183;entryY=1.223;entryDx=0;entryDy=0;entryPerimeter=0;" edge="1" parent="1">
          <mxGeometry width="80" relative="1" as="geometry">
            <mxPoint x="357.36" y="198.2" as="sourcePoint" />
            <mxPoint x="265" y="232.998" as="targetPoint" />
          </mxGeometry>
        </mxCell>
        <mxCell id="MWRULVRWjAI7JQODRnuG-37" value="" style="html=1;verticalAlign=bottom;endArrow=block;curved=0;rounded=0;" edge="1" parent="1">
          <mxGeometry width="80" relative="1" as="geometry">
            <mxPoint x="149" y="294" as="sourcePoint" />
            <mxPoint x="193" y="277" as="targetPoint" />
          </mxGeometry>
        </mxCell>
        <mxCell id="MWRULVRWjAI7JQODRnuG-38" value="" style="html=1;verticalAlign=bottom;endArrow=block;curved=0;rounded=0;" edge="1" parent="1">
          <mxGeometry width="80" relative="1" as="geometry">
            <mxPoint x="173" y="216" as="sourcePoint" />
            <mxPoint x="243" y="252" as="targetPoint" />
          </mxGeometry>
        </mxCell>
        <mxCell id="MWRULVRWjAI7JQODRnuG-39" value="" style="html=1;verticalAlign=bottom;endArrow=block;curved=0;rounded=0;" edge="1" parent="1">
          <mxGeometry width="80" relative="1" as="geometry">
            <mxPoint x="352" y="311" as="sourcePoint" />
            <mxPoint x="306" y="291" as="targetPoint" />
          </mxGeometry>
        </mxCell>
      </root>
    </mxGraphModel>
  </diagram>
</mxfile>
